<svg width="33" height="32" viewBox="0 0 33 32" fill="none" xmlns="http://www.w3.org/2000/svg">
<g id="Apps">
<path id="Shape" d="M25.6414 2.95386C24.3722 1.68465 22.3144 1.68465 21.0452 2.95386L17.8324 6.16657C17.7882 4.41019 16.3505 2.99997 14.5835 2.99997H7.0835C5.28857 2.99997 3.8335 4.45504 3.8335 6.24997V25.75C3.8335 27.5449 5.28857 29 7.0835 29L26.5835 29C28.3784 29 29.8335 27.5449 29.8335 25.75V18.25C29.8335 16.4858 28.4279 15.0499 26.6754 15.0012L29.884 11.7927C31.1532 10.5235 31.1532 8.4657 29.884 7.1965L25.6414 2.95386ZM20.0098 15H17.8335V12.8237L20.0098 15ZM22.4594 4.36807C22.9475 3.87991 23.739 3.87991 24.2271 4.36807L28.4698 8.61071C28.9579 9.09887 28.9579 9.89032 28.4698 10.3785L24.2271 14.6211C23.739 15.1093 22.9475 15.1093 22.4594 14.6211L18.2167 10.3785C17.7286 9.89032 17.7286 9.09887 18.2167 8.61071L22.4594 4.36807ZM15.8335 6.24997V15H5.8335V6.24997C5.8335 5.55961 6.39314 4.99997 7.0835 4.99997H14.5835C15.2739 4.99997 15.8335 5.55961 15.8335 6.24997ZM5.8335 25.75V17H15.8335V27H7.0835C6.39314 27 5.8335 26.4403 5.8335 25.75ZM17.8335 17H26.5835C27.2739 17 27.8335 17.5596 27.8335 18.25V25.75C27.8335 26.4403 27.2739 27 26.5835 27H17.8335V17Z" fill="#3B3B3B"/>
</g>
</svg>
