<?xml version="1.0" encoding="UTF-8"?>
<svg id="Layer_1" xmlns="http://www.w3.org/2000/svg" version="1.1" viewBox="0 0 792 1224">
  <!-- Generator: Adobe Illustrator 29.2.1, SVG Export Plug-In . SVG Version: 2.1.0 Build 116)  -->
  <defs>
    <style>
      .st0 {
        fill: #020202;
      }

      .st1 {
        fill: #fff;
      }

      .st2 {
        fill: #9e9e9e;
      }
    </style>
  </defs>
  <g id="Layer_1-2">
    <g>
      <path class="st2" d="M444.9,606.9v34.4c0,.8-.4,1.2-1.2,1.2h-2.2c-.8,0-1.2-.4-1.2-1.2v-34.4h-6.2c-.8,0-1.2-.4-1.2-1.2v-1.5c0-.8.4-1.1,1.2-1.1h17c.8,0,1.2.4,1.2,1.1v1.5c0,.8-.4,1.2-1.2,1.2h-6.2,0Z"/>
      <path class="st2" d="M475.4,610.8v23.9c0,5.2-1.9,8-8.4,8s-8.4-2.8-8.4-8v-24c0-5.2,1.9-8,8.4-8s8.4,2.8,8.4,8ZM463.2,610.8v23.9c0,2.6.7,4.2,3.8,4.2s3.8-1.6,3.8-4.2v-24c0-2.6-.7-4.2-3.8-4.2s-3.8,1.6-3.8,4.2Z"/>
      <path class="st2" d="M500.6,610.8v23.9c0,5.2-1.9,8-8.4,8s-8.4-2.8-8.4-8v-24c0-5.2,1.9-8,8.4-8s8.4,2.8,8.4,8ZM488.4,610.8v23.9c0,2.6.7,4.2,3.8,4.2s3.8-1.6,3.8-4.2v-24c0-2.6-.7-4.2-3.8-4.2s-3.8,1.6-3.8,4.2Z"/>
      <path class="st2" d="M513.6,638.7h8.9c.8,0,1.2.4,1.2,1.1v1.5c0,.8-.4,1.2-1.2,1.2h-12.3c-.8,0-1.2-.4-1.2-1.2v-37.1c0-.8.4-1.1,1.2-1.1h2.2c.8,0,1.2.4,1.2,1.1v34.5h0Z"/>
      <path class="st2" d="M537.6,618.4l5.7,5.9c2.5,2.5,3.6,4.7,3.6,10.4s-1.9,8-8.4,8-8.3-2.8-8.3-8v-5.2c0-.8.4-1.2,1.1-1.2h2.2c.8,0,1.1.4,1.1,1.2v5.2c0,2.6.7,4.2,3.8,4.2s3.9-1.6,3.9-4.2-.4-5-2.9-7.6l-5.7-5.9c-2.5-2.4-3.6-4.7-3.6-10.4s1.8-8,8.3-8,8.4,2.8,8.4,8v5.2c0,.8-.4,1.1-1.1,1.1h-2.2c-.8,0-1.1-.4-1.1-1.1v-5.2c0-2.6-.8-4.2-3.9-4.2s-3.8,1.6-3.8,4.2.4,5,2.9,7.6Z"/>
    </g>
    <polygon class="st1" points="437.1 602.8 444.7 602.8 429.7 642.8 437.1 602.8"/>
    <path class="st0" d="M303.9,611.9c0-1,.4-1.9,1-2.5l7.5-7.5c.7-.7,1.6-1.1,2.5-1,.9,0,1.8.4,2.5,1l7.5,7.5c1.4,1.4,1.4,3.7,0,5l-7.5,7.5c-.6.7-1.5,1-2.5,1-.9,0-1.9-.4-2.5-1l-7.5-7.5c-.7-.7-1.1-1.6-1-2.5h0Z"/>
    <path class="st0" d="M263,592c0-.9.4-1.9,1-2.5l7.6-7.5c.7-.7,1.6-1.1,2.5-1,.9,0,1.8.4,2.5,1l7.5,7.5c.7.7,1.1,1.6,1,2.5,0,.9-.4,1.8-1,2.5l-7.5,7.5c-.6.7-1.5,1-2.5,1-1,0-1.9-.4-2.5-1l-7.6-7.5c-.7-.6-1-1.5-1-2.5Z"/>
    <path class="st0" d="M287.5,592c0-.9.4-1.9,1-2.5l7.6-7.5c.7-.7,1.6-1.1,2.5-1,.9,0,1.8.4,2.5,1l7.5,7.5c.7.7,1.1,1.6,1,2.5,0,.9-.4,1.8-1,2.5l-7.5,7.5c-.6.7-1.5,1-2.5,1-1,0-1.9-.4-2.5-1l-7.6-7.5c-.7-.6-1-1.5-1-2.5Z"/>
    <path class="st0" d="M310.9,629.6l-20.7-20.7c-.3-.3-.7-.7-1-1.1-.4-.4-.7-.8-1.2-1.1-.4-.3-.8-.6-1.3-.9-.5-.2-1-.4-1.5-.4s-1,.1-1.5.4-.9.5-1.3.9c-.4.4-.8.7-1.2,1.1-.4.4-.7.8-1,1.1l-20.7,20.7c-.7.7-1.1,1.6-1,2.5,0,.9.4,1.8,1,2.5l7.9,7.9c.2-.3.5-.6.8-.9l12.8-12.7c1.1-1.2,2.7-1.8,4.3-1.8,1.5,0,3,.6,4.1,1.7,1.1,1.1,2.2,2.2,3.3,3.3l9.5,9.5c.3.3.6.6.8.9l8-8c.7-.6,1.1-1.5,1-2.5,0-1-.4-1.9-1.1-2.5h0Z"/>
    <path class="st0" d="M257.5,599.2c.9,0,1.8.4,2.5,1l7.5,7.5c1.4,1.4,1.4,3.6,0,5,0,0,0,0,0,0l-7.5,7.5c-.6.7-1.5,1-2.5,1-.9,0-1.9-.4-2.5-1l-7.5-7.5c-1.4-1.4-1.4-3.6,0-5l7.5-7.5c.7-.7,1.6-1.1,2.5-1Z"/>
    <path class="st0" d="M360.2,643.2c-12,0-18.7-9.4-18.7-20.6s7.4-20.5,19.2-20.5,14.7,2.7,14.7,8.3-1.1,4-3.6,4-3.7-2.4-5.8-3.5c-1.5-.7-3.2-1.1-4.9-1-7.2,0-11.9,5.6-11.9,12.6s4.4,13.1,12.1,13.1c1.7,0,3.4-.2,5-.8,2.1-.8,3.9-3.1,6-3.1s3.5,1.5,3.5,3.6-1.8,4-3.5,5c-3.6,2-7.7,3-11.9,3Z"/>
    <path class="st0" d="M396.1,642.2c-2.6,0-4.3-1.4-4.3-3.7s1.7-3.7,4.3-3.7h8.6c-1.1-5.9-6.4-20.1-9.6-22.6-3.5,3.5-8.9,18.1-10.5,25.6-.7,3.2-1.6,4.8-4.1,4.8s-3.8-1.7-3.8-3.7c0-3.2,1.9-9.5,4.6-16,3.2-8.2,8.4-20.1,13.8-20.1s10.6,11.9,13.8,20.1c2.5,6.5,4.4,12.7,4.4,15.9s-.9,3.4-3.7,3.4h-13.6Z"/>
    <path class="st0" d="M420.6,610.6h-8.3c-2.3,0-3.7-1.7-3.7-3.8s1.4-3.8,3.7-3.8h23.9c2.3,0,3.7,1.7,3.7,3.8s-1.4,3.8-3.7,3.8h-8.2v28.4c0,2.4-1.7,3.7-3.8,3.7s-3.6-1.2-3.6-3.7v-28.4Z"/>
    <path class="st0" d="M348.1,580.7h4.7c.6,0,1.2,0,1.8.2.6.1,1.2.3,1.7.7.5.3.9.8,1.3,1.3.3.6.5,1.3.5,2.1,0,.7-.1,1.3-.4,1.9-.2.5-.6,1-1.1,1.3-.5.3-1,.6-1.6.8-.6.2-1.2.3-1.8.2h-3.5v7.7h-1.5v-16.1h0ZM349.6,587.8h3.4c.4,0,.8,0,1.3-.2.4,0,.8-.2,1.1-.5.3-.2.6-.5.8-.9.2-.4.3-.9.3-1.3,0-.5,0-.9-.3-1.3-.2-.3-.5-.7-.8-.9-.3-.2-.7-.4-1.1-.5-.4-.1-.8-.2-1.3-.2h-3.3s0,5.7,0,5.8Z"/>
    <path class="st0" d="M360.3,591.6c0-.8.1-1.5.4-2.2.3-.7.7-1.2,1.1-1.8.5-.5,1.1-.9,1.8-1.2,1.4-.6,3-.6,4.5,0,1.3.5,2.4,1.6,2.9,2.9.6,1.4.6,3,0,4.4-.5,1.3-1.6,2.4-2.9,2.9-1.4.5-3,.5-4.5,0-.7-.3-1.3-.6-1.8-1.1s-.9-1.1-1.1-1.8c-.3-.7-.4-1.5-.4-2.2ZM361.6,591.6c0,.6.1,1.1.3,1.7.2.5.5,1,.8,1.4.4.4.8.7,1.3.9,1.1.5,2.4.5,3.5,0,.5-.2.9-.5,1.3-.9.4-.4.7-.9.8-1.4.4-1.1.4-2.3,0-3.3-.2-.5-.5-1-.8-1.4-.4-.4-.8-.7-1.3-.9-1.1-.5-2.4-.5-3.5,0-.5.2-.9.5-1.3.9s-.7.9-.8,1.4c-.2.5-.3,1.1-.3,1.7Z"/>
    <path class="st0" d="M372.9,586.3h1.5l2.6,8.8h0l2.9-8.8h1.3l3.1,8.8h0l2.5-8.8h1.4l-3.1,10.5h-1.4l-3.2-8.6h0l-2.9,8.6h-1.4l-3.3-10.5h0Z"/>
    <path class="st0" d="M399.8,594.9c-.5.8-1.2,1.4-2,1.7-.8.4-1.7.5-2.6.5-.8,0-1.5-.1-2.2-.4-.6-.3-1.2-.7-1.7-1.1-.5-.5-.9-1.1-1.1-1.8-.3-.7-.4-1.5-.4-2.2,0-.8.1-1.5.4-2.2.2-.6.6-1.2,1.1-1.7.5-.5,1-.9,1.7-1.2.7-.3,1.4-.4,2.1-.4.7,0,1.5.1,2.1.4.6.3,1.1.6,1.6,1.1.4.5.7,1,.9,1.6.2.6.3,1.2.3,1.8v1h-8.8c0,.4,0,.8.2,1.1.3,1,.9,1.9,1.9,2.4.6.3,1.3.5,2,.5.7,0,1.4-.2,2-.5.6-.3,1.1-.8,1.5-1.4l1,.8h0ZM398.7,590.7c0-.5,0-.9-.3-1.3s-.5-.8-.8-1.1c-.7-.7-1.6-1-2.6-1-.6,0-1.3.1-1.9.5-.5.3-.9.6-1.2,1.1-.3.4-.5.7-.6,1.1,0,.2-.1.5-.2.8h7.5,0Z"/>
    <path class="st0" d="M403.1,589.3c0-.2,0-.4,0-.7s0-.6,0-.9,0-.6,0-.8,0-.4,0-.6h1.4c0,.4,0,.8,0,1.1,0,.2,0,.5,0,.7.3-.6.8-1.1,1.4-1.5.6-.4,1.3-.6,2-.6.1,0,.3,0,.4,0,.1,0,.3,0,.4,0l-.2,1.3c-.2,0-.4,0-.5,0-.5,0-1.1,0-1.5.3-.4.2-.8.4-1.1.8-.3.4-.5.8-.6,1.2-.1.5-.2,1-.2,1.4v5.8h-1.4v-7.6h0Z"/>
    <polygon class="st2" points="429.7 642.8 436.7 603.1 442.2 603.1 429.9 642.8 429.7 642.8"/>
  </g>
</svg>