<svg width="33" height="32" viewBox="0 0 33 32" fill="none" xmlns="http://www.w3.org/2000/svg">
<g id="Chat Bubbles Question">
<path id="Shape" d="M12.6666 3C6.86757 3 2.16656 7.70101 2.16656 13.5C2.16656 14.7989 2.40282 16.044 2.835 17.1938C2.96285 17.534 3.10785 17.8658 3.26895 18.1881L2.21921 22.1058C1.92035 23.2212 2.94098 24.2418 4.05633 23.943L7.97115 22.894C9.38501 23.6019 10.9806 24 12.6666 24C18.4655 24 23.1666 19.299 23.1666 13.5C23.1666 7.70101 18.4655 3 12.6666 3ZM5.21222 17.5882C4.54594 16.3761 4.16656 14.9839 4.16656 13.5C4.16656 8.80558 7.97214 5 12.6666 5C17.361 5 21.1666 8.80558 21.1666 13.5C21.1666 18.1944 17.361 22 12.6666 22C11.1802 22 9.78575 21.6193 8.5723 20.951C8.3461 20.8264 8.08047 20.7941 7.83103 20.861L4.3752 21.787L5.30184 18.3287C5.3686 18.0796 5.33649 17.8142 5.21222 17.5882ZM14.6214 25.3417C13.9852 25.446 13.3322 25.5002 12.6665 25.5002C12.3797 25.5002 12.0953 25.4901 11.8135 25.4703C13.7369 27.6358 16.5423 29.0002 19.6665 29.0002C21.3525 29.0002 22.948 28.6021 24.3619 27.8941L28.2767 28.9431C29.392 29.242 30.4127 28.2214 30.1138 27.106L29.0641 23.1883C29.2252 22.8659 29.3702 22.5341 29.498 22.194C29.9302 21.0442 30.1665 19.799 30.1665 18.5002C30.1665 14.1361 27.5041 10.3939 23.715 8.80908C24.0779 9.6628 24.3448 10.5672 24.502 11.5087C26.7163 13.0431 28.1665 15.6023 28.1665 18.5002C28.1665 19.984 27.7871 21.3763 27.1208 22.5883C26.9965 22.8144 26.9644 23.0797 27.0312 23.3289L27.9578 26.7871L24.502 25.8611C24.2525 25.7943 23.9869 25.8266 23.7607 25.9511C22.5473 26.6195 21.1528 27.0002 19.6665 27.0002C17.7775 27.0002 16.0325 26.384 14.6214 25.3417ZM11.6665 15C11.6665 15.55 12.1165 16 12.6665 16C13.2165 16 13.6665 15.55 13.6665 15C13.6665 14.0992 14.1761 13.5217 14.7684 12.8505L14.7865 12.83C15.4365 12.09 16.1665 11.21 16.1665 10C16.1665 8.79 15.2365 7 12.6665 7C10.0965 7 9.1665 8.79 9.1665 10C9.1665 10.55 9.6165 11 10.1665 11C10.7165 11 11.1665 10.55 11.1665 10C11.1665 9.83 11.2365 9 12.6665 9C13.9865 9 14.1565 9.71 14.1665 10C14.1665 10.48 13.8465 10.86 13.2865 11.5L13.2674 11.5217C12.5507 12.3378 11.6665 13.3447 11.6665 15ZM13.9165 18.75C13.9165 19.4404 13.3569 20 12.6665 20C11.9761 20 11.4165 19.4404 11.4165 18.75C11.4165 18.0596 11.9761 17.5 12.6665 17.5C13.3569 17.5 13.9165 18.0596 13.9165 18.75Z" fill="#3B3B3B"/>
</g>
</svg>
