<svg width="66" height="57" viewBox="0 0 66 57" fill="none" xmlns="http://www.w3.org/2000/svg">
<g id="template 5">
<path id="Shape" d="M32.3755 13.5C22.9866 13.5 15.3755 21.1112 15.3755 30.5C15.3755 35.1895 17.2723 39.4331 20.3441 42.5103C20.9294 43.0966 20.9286 44.0463 20.3423 44.6316C19.756 45.2169 18.8062 45.216 18.221 44.6297C14.6106 41.0131 12.3755 36.0161 12.3755 30.5C12.3755 19.4543 21.3298 10.5 32.3755 10.5C43.4212 10.5 52.3755 19.4543 52.3755 30.5C52.3755 36.0161 50.1404 41.0131 46.53 44.6297C45.9447 45.216 44.995 45.2169 44.4087 44.6316C43.8224 44.0463 43.8216 43.0966 44.4068 42.5103C47.4787 39.4331 49.3755 35.1895 49.3755 30.5C49.3755 21.1112 41.7643 13.5 32.3755 13.5ZM32.3755 20.5C26.8526 20.5 22.3755 24.9772 22.3755 30.5C22.3755 33.2636 23.4945 35.7629 25.3078 37.5745C25.8939 38.16 25.8943 39.1097 25.3088 39.6958C24.7233 40.2819 23.7736 40.2823 23.1875 39.6968C20.834 37.3456 19.3755 34.0917 19.3755 30.5C19.3755 23.3203 25.1958 17.5 32.3755 17.5C39.5552 17.5 45.3755 23.3203 45.3755 30.5C45.3755 34.0917 43.9169 37.3456 41.5635 39.6968C40.9774 40.2823 40.0276 40.2819 39.4421 39.6958C38.8566 39.1097 38.8571 38.16 39.4432 37.5745C41.2564 35.7629 42.3755 33.2636 42.3755 30.5C42.3755 24.9772 37.8983 20.5 32.3755 20.5ZM32.3755 25.5C29.6141 25.5 27.3755 27.7386 27.3755 30.5C27.3755 33.2614 29.6141 35.5 32.3755 35.5C35.1369 35.5 37.3755 33.2614 37.3755 30.5C37.3755 27.7386 35.1369 25.5 32.3755 25.5ZM30.3755 30.5C30.3755 29.3954 31.2709 28.5 32.3755 28.5C33.4801 28.5 34.3755 29.3954 34.3755 30.5C34.3755 31.6046 33.4801 32.5 32.3755 32.5C31.2709 32.5 30.3755 31.6046 30.3755 30.5Z" fill="#242424"/>
</g>
</svg>
