<svg width="41" height="41" viewBox="0 0 41 41" fill="none" xmlns="http://www.w3.org/2000/svg">
<g clip-path="url(#clip0_102_6620)">
<path d="M2.36675 38.4545C0.807003 36.9214 -0.0480081 34.8092 0.00208345 32.621L0.300905 8.06523C0.283632 5.87877 1.17146 3.78391 2.75539 2.28018C4.27196 0.760886 6.34816 -0.0635769 8.49346 0.00383183L32.9381 0.20433C35.1249 0.188774 37.2201 1.08065 38.728 2.66562C40.2429 4.18145 41.0651 6.25729 40.996 8.40055L40.7956 32.8613C40.8232 35.008 39.9648 37.0683 38.4206 38.5582C36.8936 40.1172 34.7881 40.9745 32.6048 40.9244L8.06337 40.819C5.91634 40.8518 3.85568 39.9962 2.36675 38.4545Z" fill="url(#paint0_linear_102_6620)"/>
<g filter="url(#filter0_d_102_6620)">
<path d="M36.2495 19.421L36.2478 7.67802C36.2478 7.49135 36.2547 7.28739 36.2719 7.06443C36.2875 6.84665 36.2875 6.62886 36.2702 6.41281C36.2564 6.20886 36.2201 6.0049 36.1614 5.80786C36.1009 5.61082 35.9921 5.43106 35.8419 5.2876C35.695 5.13723 35.5137 5.02661 35.315 4.96266C35.1164 4.90043 34.9108 4.86068 34.7036 4.84685C34.4859 4.8313 34.2683 4.8313 34.0524 4.84512C33.8296 4.86241 33.624 4.86932 33.4392 4.86932H21.7057C21.3257 4.86587 20.9629 5.01969 20.7004 5.29279C20.4344 5.55378 20.2893 5.91329 20.2979 6.28663L20.291 10.7823C20.4447 10.7546 20.6019 10.7391 20.7574 10.7408L27.9827 10.765C28.6252 10.7564 29.2401 11.0122 29.6858 11.4754C30.1383 11.9006 30.3905 12.4969 30.3836 13.1191C30.375 13.7414 30.3698 14.3688 30.3698 14.9996V20.3716C30.3715 20.5358 30.3594 20.6983 30.3283 20.859L34.8383 20.8521C35.2097 20.8608 35.5707 20.7156 35.8315 20.4494C36.1096 20.1763 36.2616 19.8047 36.2495 19.421Z" fill="url(#paint1_linear_102_6620)"/>
</g>
<g filter="url(#filter1_dd_102_6620)">
<path d="M6.18053 13.4323L6.10798 30.6094C6.10625 30.8808 6.13562 33.0586 6.22026 33.3473C6.34117 33.7413 6.46726 33.9004 6.68317 34.1112C6.89563 34.3325 7.22209 34.5088 7.45182 34.59C7.67982 34.673 7.95791 34.7559 8.25674 34.7559C8.28783 34.7559 27.3641 34.8147 27.3641 34.8147C27.9185 34.8216 28.4523 34.6004 28.8375 34.2011C29.2278 33.8209 29.442 33.2954 29.4334 32.7492L29.4714 26.2313C29.4714 26.2313 29.0171 26.2365 28.7874 26.2348L18.2198 26.1535C17.2249 26.1535 16.3802 25.7819 15.7307 25.1044C15.0709 24.4787 14.7065 23.6041 14.722 22.695C14.7393 21.7858 14.7496 20.868 14.7548 19.945L14.7894 12.0876C14.7876 11.8491 14.7911 11.4533 14.7911 11.4533L8.26192 11.3997C7.71782 11.3841 7.18409 11.5518 6.80063 11.9389C6.39126 12.3261 6.16844 12.8688 6.18053 13.4323Z" fill="url(#paint2_linear_102_6620)"/>
</g>
</g>
<defs>
<filter id="filter0_d_102_6620" x="-3.70898" y="-9.16504" width="63.9922" height="64.0242" filterUnits="userSpaceOnUse" color-interpolation-filters="sRGB">
<feFlood flood-opacity="0" result="BackgroundImageFix"/>
<feColorMatrix in="SourceAlpha" type="matrix" values="0 0 0 0 0 0 0 0 0 0 0 0 0 0 0 0 0 0 127 0" result="hardAlpha"/>
<feOffset dy="10"/>
<feGaussianBlur stdDeviation="12"/>
<feColorMatrix type="matrix" values="0 0 0 0 0.509804 0 0 0 0 0.172549 0 0 0 0 0.509804 0 0 0 0.24 0"/>
<feBlend mode="normal" in2="BackgroundImageFix" result="effect1_dropShadow_102_6620"/>
<feBlend mode="normal" in="SourceGraphic" in2="effect1_dropShadow_102_6620" result="shape"/>
</filter>
<filter id="filter1_dd_102_6620" x="-1.89209" y="5.39868" width="39.3633" height="39.4163" filterUnits="userSpaceOnUse" color-interpolation-filters="sRGB">
<feFlood flood-opacity="0" result="BackgroundImageFix"/>
<feColorMatrix in="SourceAlpha" type="matrix" values="0 0 0 0 0 0 0 0 0 0 0 0 0 0 0 0 0 0 127 0" result="hardAlpha"/>
<feOffset dy="0.4"/>
<feGaussianBlur stdDeviation="0.4"/>
<feColorMatrix type="matrix" values="0 0 0 0 0 0 0 0 0 0 0 0 0 0 0 0 0 0 0.24 0"/>
<feBlend mode="normal" in2="BackgroundImageFix" result="effect1_dropShadow_102_6620"/>
<feColorMatrix in="SourceAlpha" type="matrix" values="0 0 0 0 0 0 0 0 0 0 0 0 0 0 0 0 0 0 127 0" result="hardAlpha"/>
<feOffset dy="2"/>
<feGaussianBlur stdDeviation="4"/>
<feColorMatrix type="matrix" values="0 0 0 0 0 0 0 0 0 0 0 0 0 0 0 0 0 0 0.32 0"/>
<feBlend mode="normal" in2="effect1_dropShadow_102_6620" result="effect2_dropShadow_102_6620"/>
<feBlend mode="normal" in="SourceGraphic" in2="effect2_dropShadow_102_6620" result="shape"/>
</filter>
<linearGradient id="paint0_linear_102_6620" x1="20.5" y1="0" x2="20.5" y2="40.9265" gradientUnits="userSpaceOnUse">
<stop stop-color="#E1ADE1"/>
<stop offset="1" stop-color="#CA5BCA"/>
</linearGradient>
<linearGradient id="paint1_linear_102_6620" x1="28.2872" y1="4.83496" x2="28.2872" y2="20.859" gradientUnits="userSpaceOnUse">
<stop stop-color="#EFEEFF"/>
<stop offset="1" stop-color="#F5ECF5"/>
</linearGradient>
<linearGradient id="paint2_linear_102_6620" x1="17.7896" y1="11.3987" x2="17.7896" y2="34.8149" gradientUnits="userSpaceOnUse">
<stop stop-color="#EFEEFF"/>
<stop offset="1" stop-color="#F5ECF5"/>
</linearGradient>
<clipPath id="clip0_102_6620">
<rect width="41" height="40.9265" fill="white"/>
</clipPath>
</defs>
</svg>
