<svg width="66" height="57" viewBox="0 0 66 57" fill="none" xmlns="http://www.w3.org/2000/svg">
<path d="M16.75 9.5C14.4028 9.5 12.5 11.4028 12.5 13.75V22.7977C12.5826 22.7922 12.666 22.7895 12.75 22.7895H15V13.75C15 12.7835 15.7835 12 16.75 12H48.25C49.2165 12 50 12.7835 50 13.75V22.7895H52.25C52.334 22.7895 52.4174 22.7922 52.5 22.7977V13.75C52.5 11.4028 50.5972 9.5 48.25 9.5H16.75ZM12.5 37.25V30.2813C12.5826 30.2867 12.666 30.2895 12.75 30.2895H15V37.25C15 38.2165 15.7835 39 16.75 39H48.25C49.2165 39 50 38.2165 50 37.25V30.2895H52.25C52.334 30.2895 52.4174 30.2867 52.5 30.2813V37.25C52.5 39.5972 50.5972 41.5 48.25 41.5H39.5V45H42.25C42.9404 45 43.5 45.5596 43.5 46.25C43.5 46.9404 42.9404 47.5 42.25 47.5H22.75C22.0596 47.5 21.5 46.9404 21.5 46.25C21.5 45.5596 22.0596 45 22.75 45H25.5V41.5H16.75C14.4028 41.5 12.5 39.5972 12.5 37.25ZM37 41.5H28V45H37V41.5ZM27.4404 15.3685C27.2768 14.8582 26.8062 14.5089 26.2704 14.5002C25.7346 14.4914 25.2529 14.8251 25.0727 15.3298L21.4428 25.5H13.75C13.0596 25.5 12.5 26.0596 12.5 26.75C12.5 27.4404 13.0596 28 13.75 28H22.3239C22.8523 28 23.3236 27.6678 23.5012 27.1702L26.1864 19.6469L31.3096 35.6315C31.4666 36.1214 31.9077 36.465 32.421 36.4975C32.9344 36.53 33.4152 36.2447 33.6327 35.7786L39.4426 23.3289L41.0914 27.236C41.2868 27.699 41.7405 28 42.2431 28H51.25C51.9404 28 52.5 27.4404 52.5 26.75C52.5 26.0596 51.9404 25.5 51.25 25.5H43.0723L40.6516 19.764C40.4595 19.3088 40.0173 19.0094 39.5233 19.0002C39.0293 18.991 38.5762 19.2737 38.3673 19.7214L32.7165 31.8301L27.4404 15.3685Z" fill="#242424"/>
</svg>
