<svg width="33" height="32" viewBox="0 0 33 32" fill="none" xmlns="http://www.w3.org/2000/svg">
<g id="Document Copy">
<path id="Shape" d="M7.83723 6.16947L7.8335 9.00008V23.0057C7.8335 25.3989 9.7736 27.339 12.1668 27.339L23.6552 27.3394C23.2433 28.5044 22.1321 29.339 20.826 29.339H12.1668C8.66903 29.339 5.8335 26.5035 5.8335 23.0057V9.00008C5.8335 7.69247 6.67009 6.58025 7.83723 6.16947ZM18.0047 2.66675C18.8007 2.66675 19.564 2.98306 20.1267 3.54604L26.2845 9.70746C26.8467 10.27 27.1626 11.0328 27.1626 11.8282V23.0057C27.1626 24.6625 25.8194 26.0057 24.1626 26.0057H12.17C10.5132 26.0057 9.17004 24.6625 9.17004 23.0057V5.66675C9.17004 4.00989 10.5132 2.66675 12.17 2.66675H18.0047ZM17.8327 4.66675H12.17C11.6178 4.66675 11.17 5.11446 11.17 5.66675V23.0057C11.17 23.558 11.6178 24.0057 12.17 24.0057H24.1626C24.7149 24.0057 25.1626 23.558 25.1626 23.0057L25.162 12.0041L20.8335 12.0053C19.2457 12.0053 17.946 10.7717 17.8404 9.21067L17.8335 9.00527L17.8327 4.66675ZM19.8327 6.08141L19.8335 9.00527C19.8335 9.51153 20.2097 9.92992 20.6978 9.99614L20.8335 10.0053L23.754 10.0041L19.8327 6.08141Z" fill="#3B3B3B"/>
</g>
</svg>
