<svg width="49" height="49" viewBox="0 0 49 49" fill="none" xmlns="http://www.w3.org/2000/svg">
<g id="template 5">
<path id="Shape" d="M43.8849 4.86612C44.373 5.35427 44.373 6.14573 43.8849 6.63388L38.9714 11.5473C41.8205 15.1771 41.5727 20.446 38.228 23.7907L34.8849 27.1339C34.3967 27.622 33.6052 27.622 33.1171 27.1339L21.6171 15.6339C21.1289 15.1457 21.1289 14.3543 21.6171 13.8661L24.9602 10.523C28.305 7.17826 33.5738 6.93045 37.2037 9.77954L42.1171 4.86612C42.6052 4.37796 43.3967 4.37796 43.8849 4.86612ZM36.2739 12.2907C33.6379 9.6547 29.364 9.6547 26.728 12.2907L24.2687 14.75L34.001 24.4822L36.4602 22.023C39.0963 19.3869 39.0963 15.1131 36.4602 12.477L36.2739 12.2907ZM9.53052 37.4527L4.61709 42.3661C4.12894 42.8543 4.12894 43.6457 4.61709 44.1339C5.10525 44.622 5.8967 44.622 6.38486 44.1339L11.2983 39.2205C14.9281 42.0695 20.197 41.8217 23.5417 38.477L26.8849 35.1339C27.373 34.6457 27.373 33.8543 26.8849 33.3661L25.5187 32L28.8849 28.6339C29.373 28.1457 29.373 27.3543 28.8849 26.8661C28.3967 26.378 27.6052 26.378 27.1171 26.8661L23.751 30.2322L18.5187 25L21.8849 21.6339C22.373 21.1457 22.373 20.3543 21.8849 19.8661C21.3967 19.378 20.6052 19.378 20.1171 19.8661L16.751 23.2322L15.3849 21.8661C14.8967 21.378 14.1052 21.378 13.6171 21.8661L10.2739 25.2093C6.92923 28.554 6.68143 33.8229 9.53052 37.4527ZM12.0417 26.977L14.501 24.5178L24.2332 34.25L21.7739 36.7093C19.1379 39.3453 14.864 39.3453 12.228 36.7093L12.0417 36.523C9.40567 33.8869 9.40567 29.6131 12.0417 26.977Z" fill="#242424"/>
</g>
</svg>
