<svg width="64" height="64" viewBox="0 0 64 64" fill="none" xmlns="http://www.w3.org/2000/svg">
<rect width="64" height="64" fill="#F6FAFE"/>
<path d="M33.25 27C33.25 27.5523 32.8023 28 32.25 28C31.6977 28 31.25 27.5523 31.25 27C31.25 26.4477 31.6977 26 32.25 26C32.8023 26 33.25 26.4477 33.25 27ZM31.5 29.75L31.5 34.75C31.5 35.1642 31.8358 35.5 32.25 35.5C32.6642 35.5 33 35.1642 33 34.75V29.75C33 29.3358 32.6642 29 32.25 29C31.8358 29 31.5 29.3358 31.5 29.75ZM24 24.5C24 23.1193 25.1193 22 26.5 22H38C39.3807 22 40.5 23.1193 40.5 24.5V38.75C40.5 39.1642 40.1642 39.5 39.75 39.5H25.5C25.5 40.0523 25.9477 40.5 26.5 40.5H39.75C40.1642 40.5 40.5 40.8358 40.5 41.25C40.5 41.6642 40.1642 42 39.75 42H26.5C25.1193 42 24 40.8807 24 39.5V24.5ZM39 38V24.5C39 23.9477 38.5523 23.5 38 23.5H26.5C25.9477 23.5 25.5 23.9477 25.5 24.5V38H39Z" fill="#008B94"/>
</svg>
