<svg width="36" height="36" viewBox="0 0 36 36" fill="none" xmlns="http://www.w3.org/2000/svg">
<rect width="36" height="36" rx="4" fill="#FFFAD6"/>
<path d="M19.9046 12.8148C20.2831 12.9831 20.4536 13.4263 20.2854 13.8048L16.2854 22.8048C16.1171 23.1833 15.6739 23.3538 15.2954 23.1855C14.9169 23.0173 14.7464 22.5741 14.9146 22.1956L18.9146 13.1956C19.0829 12.8171 19.5261 12.6466 19.9046 12.8148ZM14.4983 15.1896C14.8079 15.4648 14.8357 15.9389 14.5606 16.2485L13.0035 18.0002L14.5606 19.7519C14.8357 20.0615 14.8079 20.5356 14.4983 20.8107C14.1887 21.0859 13.7146 21.058 13.4394 20.7485L11.4394 18.4985C11.1869 18.2143 11.1869 17.7861 11.4394 17.5019L13.4394 15.2519C13.7146 14.9423 14.1887 14.9144 14.4983 15.1896ZM21.5017 15.1896C21.8113 14.9144 22.2854 14.9423 22.5606 15.2519L24.5606 17.5019C24.8131 17.7861 24.8131 18.2143 24.5606 18.4985L22.5606 20.7485C22.2854 21.058 21.8113 21.0859 21.5017 20.8107C21.1921 20.5356 21.1643 20.0615 21.4394 19.7519L22.9965 18.0002L21.4394 16.2485C21.1643 15.9389 21.1921 15.4648 21.5017 15.1896Z" fill="url(#paint0_linear_1163_27994)"/>
<defs>
<linearGradient id="paint0_linear_1163_27994" x1="24.75" y1="23.2504" x2="16.0657" y2="9.67039" gradientUnits="userSpaceOnUse">
<stop stop-color="#EA8200"/>
<stop offset="1" stop-color="#F9AE00"/>
</linearGradient>
</defs>
</svg>
