<svg width="48" height="48" viewBox="0 0 48 48" fill="none" xmlns="http://www.w3.org/2000/svg">
<path d="M39.0417 16.0947H35.5357L36.2057 18.5947H39.0427C40.4207 18.5947 41.5417 19.7157 41.5417 21.0937V39.0947C41.5417 40.4727 40.4207 41.5937 39.0427 41.5937H21.0417C19.6637 41.5937 18.5427 40.4727 18.5427 39.0947V36.9847L16.0427 37.6547V39.0947C16.0427 41.8557 18.2807 44.0937 21.0417 44.0937H39.0427C41.8037 44.0937 44.0417 41.8557 44.0417 39.0947V21.0937C44.0417 18.3327 41.8027 16.0947 39.0417 16.0947ZM35.8757 25.0947L31.2167 7.70673C30.5017 5.03973 27.7607 3.45673 25.0937 4.17173L7.70673 8.83073C5.03973 9.54473 3.45673 12.2867 4.17173 14.9537L8.83073 32.3417C9.54573 35.0087 12.2867 36.5917 14.9537 35.8767L32.3417 31.2177C35.0087 30.5027 36.5917 27.7617 35.8767 25.0947H35.8757ZM14.3057 33.4617C12.9747 33.8187 11.6017 33.0257 11.2447 31.6947L6.58573 14.3067C6.22873 12.9757 7.02173 11.6027 8.35273 11.2457L25.7417 6.58573C27.0727 6.22873 28.4457 7.02173 28.8027 8.35273L33.4617 25.7407C33.8187 27.0717 33.0257 28.4447 31.6947 28.8017L14.3067 33.4607L14.3057 33.4617Z" fill="url(#paint0_linear_871_112002)"/>
<defs>
<linearGradient id="paint0_linear_871_112002" x1="33" y1="4" x2="21" y2="45.5" gradientUnits="userSpaceOnUse">
<stop stop-color="#B3B3B3"/>
<stop offset="1" stop-color="#757575"/>
</linearGradient>
</defs>
</svg>
