<svg width="36" height="36" viewBox="0 0 36 36" fill="none" xmlns="http://www.w3.org/2000/svg">
<rect width="36" height="36" rx="4" fill="#DCEDFA"/>
<path d="M12 16.5C12 13.4624 14.4624 11 17.5 11C20.5376 11 23 13.4624 23 16.5C23 16.7034 22.989 16.9042 22.9674 17.1019C23.3088 17.2457 23.6202 17.4368 23.8958 17.6653C23.9643 17.2872 24 16.8978 24 16.5C24 12.9101 21.0899 10 17.5 10C13.9101 10 11 12.9101 11 16.5C11 17.5066 11.2288 18.4598 11.6373 19.3103C11.8922 19.0616 12.167 18.8577 12.4555 18.6952C12.1625 18.0227 12 17.2803 12 16.5ZM22 16.5C22 16.6124 21.9959 16.7238 21.9878 16.8341L20.9964 16.6605C20.9988 16.6073 21 16.5538 21 16.5C21 14.567 19.433 13 17.5 13C15.567 13 14 14.567 14 16.5C14 17.1114 14.1568 17.6862 14.4323 18.1864C14.3961 18.1866 14.3599 18.1872 14.3236 18.1883C14.007 18.1976 13.6917 18.2407 13.3837 18.3211C13.137 17.7643 13 17.1482 13 16.5C13 14.0147 15.0147 12 17.5 12C19.9853 12 22 14.0147 22 16.5ZM16.0001 15.5C16.0001 14.6716 16.6717 14 17.5001 14C18.3285 14 19.0001 14.6716 19.0001 15.5V17.58L21.9367 18.0942C23.4728 18.3632 24.3904 19.9576 23.8514 21.4209L22.8677 24.0912C22.5594 24.9281 21.8288 25.5373 20.9502 25.6901L19.4333 25.9539C18.4079 26.1322 17.4771 25.4969 16.9975 24.7248C16.3594 23.6976 15.0367 22.2849 12.4448 21.9969C12.3014 21.981 12.1719 21.9039 12.0895 21.7854C12.0071 21.667 11.9799 21.5187 12.0149 21.3787C12.1624 20.7889 12.4435 20.3354 12.8328 20.0185C13.2185 19.7045 13.676 19.5524 14.1338 19.5029C14.757 19.4355 15.4158 19.5535 16.0001 19.7514V15.5Z" fill="url(#paint0_linear_1163_27996)"/>
<defs>
<linearGradient id="paint0_linear_1163_27996" x1="11" y1="10" x2="27.7824" y2="18.7062" gradientUnits="userSpaceOnUse">
<stop stop-color="#40C4F5"/>
<stop offset="1" stop-color="#0095E6"/>
</linearGradient>
</defs>
</svg>
