<svg width="36" height="36" viewBox="0 0 36 36" fill="none" xmlns="http://www.w3.org/2000/svg">
<rect width="36" height="36" rx="4" fill="#E5F1D3"/>
<path d="M20.2803 11.7197C19.9874 11.4268 19.5126 11.4268 19.2197 11.7197C18.9268 12.0126 18.9268 12.4874 19.2197 12.7803L20.4393 14H13.75C13.3358 14 13 14.3358 13 14.75C13 15.1642 13.3358 15.5 13.75 15.5H20.4393L19.2197 16.7197C18.9268 17.0126 18.9268 17.4874 19.2197 17.7803C19.5126 18.0732 19.9874 18.0732 20.2803 17.7803L22.7803 15.2803C23.0732 14.9874 23.0732 14.5126 22.7803 14.2197L20.2803 11.7197ZM16.7803 19.2803C17.0732 18.9874 17.0732 18.5126 16.7803 18.2197C16.4874 17.9268 16.0126 17.9268 15.7197 18.2197L13.2197 20.7197C12.9268 21.0126 12.9268 21.4874 13.2197 21.7803L15.7197 24.2803C16.0126 24.5732 16.4874 24.5732 16.7803 24.2803C17.0732 23.9874 17.0732 23.5126 16.7803 23.2197L15.5607 22H22.25C22.6642 22 23 21.6642 23 21.25C23 20.8358 22.6642 20.5 22.25 20.5H15.5607L16.7803 19.2803Z" fill="url(#paint0_linear_1163_27995)"/>
<defs>
<linearGradient id="paint0_linear_1163_27995" x1="13" y1="11.5" x2="26.2006" y2="17.9736" gradientUnits="userSpaceOnUse">
<stop stop-color="#8FDC50"/>
<stop offset="1" stop-color="#4FB918"/>
</linearGradient>
</defs>
</svg>
