<svg width="260" height="260" viewBox="0 0 260 260" fill="none" xmlns="http://www.w3.org/2000/svg">
<path d="M161.4 171.7L133.7 192.6C131.9 194 129.4 194 127.6 192.6L99.8996 171.7C85.1996 160.6 76.5996 143.3 76.5996 124.9V82.8C76.5996 81.3 77.7996 80.2 79.2996 80.2C87.2996 80.5 111.9 79.9 130.7 63.5C148.8 79.2 174 80.3 182.1 80.1C183.5 80.1 184.7 81.2 184.7 82.7V124.8C184.7 143.3 176.1 160.6 161.4 171.7Z" fill="#45B4FF"/>
<path d="M79.2996 80.3C77.7996 80.2 76.5996 81.4 76.5996 82.9V125C76.5996 143.4 85.1996 160.7 99.8996 171.8L127.6 192.7C128.5 193.4 129.6 193.7 130.6 193.7V63.5C111.8 79.9 87.2996 80.5 79.2996 80.3Z" fill="url(#paint0_linear_6027_36179)"/>
<path d="M130.7 74.6C146.5 85.5 165 88.2 176 88.8V124.9C176 140.5 168.6 155.3 156.2 164.7L130.7 183.9L105.2 164.7C92.8 155.3 85.4 140.5 85.4 124.9V89C96.8 88.6 114.7 85.8 130.7 74.6ZM130.6 63.5C113.5 78.4 91.7 80.3 81.8 80.3C80.8 80.3 79.9 80.3 79.2 80.3H79.1C77.7 80.3 76.5 81.5 76.5 82.9V125C76.5 143.4 85.1 160.7 99.8 171.8L127.5 192.7C128.4 193.4 129.5 193.7 130.5 193.7C131.5 193.7 132.6 193.4 133.5 192.7L161.2 171.8C175.9 160.7 184.5 143.4 184.5 125V82.8C184.5 81.4 183.3 80.2 181.9 80.2C181.6 80.2 181.2 80.2 180.9 80.2C172 80.2 148 78.7 130.6 63.5Z" fill="#45B4FF"/>
<path d="M161.4 171.7L133.7 192.6C132.8 193.3 131.7 193.6 130.7 193.6C130.7 190.9 130.7 82.1 130.7 63.5C148.8 79.2 174 80.3 182.1 80.1C183.5 80.1 184.7 81.2 184.7 82.7V124.8C184.7 143.3 176.1 160.6 161.4 171.7Z" fill="url(#paint1_radial_6027_36179)"/>
<path d="M186.44 82.3785L164.191 80.8765L162.454 106.617L184.702 108.119L186.44 82.3785Z" fill="#28C2D1"/>
<path d="M200.1 78.6001L194.2 77.2001L195.3 72.3001C197.2 63.9001 192.3 55.6001 184.5 53.8001C176.6 52.0001 168.6 57.4001 166.7 65.9001L165.7 70.5001L159.2 69.0001C157.7 68.7001 156.3 69.7001 155.9 71.1001L147.5 107.1C147.2 108.5 148.1 110 149.5 110.3L190.5 119.9C192 120.2 193.4 119.3 193.7 117.9L202.1 82.0001C202.5 80.4001 201.6 78.9001 200.1 78.6001ZM182.5 62.5001C185.9 63.3001 188 66.8001 187.1 70.4001L186 75.2001L173.8 72.3001L174.9 67.6001C175.7 64.1001 179.1 61.8001 182.5 62.5001ZM177.3 99.0001C177.1 99.1001 176.9 99.2001 176.9 99.4001L176.1 102.8C175.6 104.8 173.3 105.9 171.4 104.8C170.2 104.1 169.7 102.7 170 101.3L170.8 98.0001C170.8 97.8001 170.8 97.6001 170.6 97.4001C168.6 95.6001 167.6 92.8001 168.4 90.0001C169.4 86.5001 173.4 84.0001 177 84.8001C181 85.7001 183.5 89.6001 182.6 93.6001C181.9 96.3001 179.8 98.3001 177.3 99.0001Z" fill="#7BDDEF"/>
<path d="M186.1 75.2L194.3 77.1L195.4 72.2C197.3 63.8 192.4 55.5 184.6 53.7C176.7 51.9 168.7 57.3 166.8 65.8L165.8 70.4L174 72.3L175.1 67.6C175.9 64 179.3 61.7 182.7 62.4C186.1 63.2 188.2 66.7 187.3 70.3L186.1 75.2Z" fill="url(#paint2_linear_6027_36179)"/>
<path d="M55.6001 55.1C54.4001 58.7 52.1001 61.8001 49.2001 64.0001C48.7001 64.4001 48.7001 65.1001 49.1001 65.5001C52.0001 68.1 54.3001 71.4 55.5001 75.2C55.8001 76.2 57.1001 76.2 57.4001 75.2C58.7001 71.4 60.9001 68.1 63.8001 65.5001C64.3001 65.1001 64.3001 64.3001 63.7001 64.0001C60.7001 61.8001 58.5001 58.7 57.3001 55.1C57.1001 54.2 55.9001 54.2 55.6001 55.1Z" fill="#E1DFDD"/>
<path d="M175.2 188.3C174 191.9 171.7 195 168.8 197.2C168.3 197.6 168.3 198.3 168.7 198.7C171.6 201.3 173.9 204.6 175.1 208.4C175.4 209.4 176.7 209.4 177 208.4C178.3 204.6 180.5 201.3 183.4 198.7C183.9 198.3 183.9 197.5 183.3 197.2C180.3 195 178.1 191.9 176.9 188.3C176.7 187.4 175.5 187.4 175.2 188.3Z" fill="#E1DFDD"/>
<path d="M157.8 202.7C157 205.2 155.4 207.3 153.4 208.8C153 209.1 153 209.6 153.4 209.9C155.4 211.7 156.9 213.9 157.8 216.5C158 217.2 158.9 217.2 159.1 216.5C160 213.9 161.5 211.6 163.5 209.9C163.8 209.6 163.8 209.1 163.5 208.8C161.5 207.3 159.9 205.1 159.1 202.7C158.8 202.1 158 202.1 157.8 202.7Z" fill="#FAF9F8"/>
<defs>
<linearGradient id="paint0_linear_6027_36179" x1="85.1233" y1="128.579" x2="170.9" y2="128.579" gradientUnits="userSpaceOnUse">
<stop stop-color="#45B4FF"/>
<stop offset="0.9986" stop-color="#0086F0"/>
</linearGradient>
<radialGradient id="paint1_radial_6027_36179" cx="0" cy="0" r="1" gradientUnits="userSpaceOnUse" gradientTransform="translate(177.37 93.3839) scale(42.8646)">
<stop offset="0.00141418" stop-color="#0086F0"/>
<stop offset="1" stop-color="#45B4FF"/>
</radialGradient>
<linearGradient id="paint2_linear_6027_36179" x1="178.08" y1="85.9542" x2="181.319" y2="66.6731" gradientUnits="userSpaceOnUse">
<stop offset="5.90738e-07" stop-color="#28C2D1"/>
<stop offset="1" stop-color="#7BDDEF"/>
</linearGradient>
</defs>
</svg>
