<svg width="32" height="32" viewBox="0 0 32 32" fill="none" xmlns="http://www.w3.org/2000/svg">
<path d="M0 16C0 7.16344 7.16344 0 16 0C24.8366 0 32 7.16344 32 16C32 24.8366 24.8366 32 16 32C7.16344 32 0 24.8366 0 16Z" fill="#D69CA5"/>
<path d="M14.6815 8.78544C15.2489 7.73813 16.752 7.73821 17.3193 8.78557L23.8198 20.7865C24.3612 21.786 23.6375 23.0009 22.5009 23.0009H9.4982C8.36147 23.0009 7.63783 21.7858 8.17934 20.7864L14.6815 8.78544ZM16.5 13.5C16.5 13.2239 16.2761 13 16 13C15.7239 13 15.5 13.2239 15.5 13.5V17.5C15.5 17.7761 15.7239 18 16 18C16.2761 18 16.5 17.7761 16.5 17.5V13.5ZM16.75 19.75C16.75 19.3358 16.4142 19 16 19C15.5858 19 15.25 19.3358 15.25 19.75C15.25 20.1642 15.5858 20.5 16 20.5C16.4142 20.5 16.75 20.1642 16.75 19.75Z" fill="#420610"/>
</svg>
