<svg width="160" height="161" viewBox="0 0 160 161" fill="none" xmlns="http://www.w3.org/2000/svg">
<g clip-path="url(#clip0_6027_50732)">
<path d="M80 112.5C110.928 112.5 136 87.4279 136 56.5C136 25.5721 110.928 0.5 80 0.5C49.0721 0.5 24 25.5721 24 56.5C24 87.4279 49.0721 112.5 80 112.5Z" fill="#72ACF1"/>
<path d="M59.4218 55.7244L56.4902 56.3613L73.9625 136.785L76.8941 136.148L59.4218 55.7244Z" fill="#3E8EED"/>
<path d="M100.537 55.7031L82.6484 136.134L85.5767 136.785L103.466 56.3544L100.537 55.7031Z" fill="#3E8EED"/>
<path d="M126.543 82.8381L90.7832 135.671L93.2675 137.352L129.027 84.5196L126.543 82.8381Z" fill="#3E8EED"/>
<path d="M33.8762 82.84L31.3916 84.5215L67.1515 137.361L69.6361 135.679L33.8762 82.84Z" fill="#3E8EED"/>
<path d="M91.4 160.5H68.6C66 160.5 64 158.4 64 155.9V136.5H96V155.9C96 158.4 93.9 160.5 91.4 160.5Z" fill="url(#paint0_linear_6027_50732)"/>
<path fill-rule="evenodd" clip-rule="evenodd" d="M24.0593 59.0996H135.941C135.98 58.2379 136 57.3711 136 56.4996C136 51.8163 135.425 47.2672 134.342 42.9191C133.779 42.7171 133.141 42.5996 132.4 42.5996C129.812 42.5996 128.512 44.0854 127.206 45.5782C125.887 47.0853 124.563 48.5996 121.9 48.5996C119.312 48.5996 118.012 47.1139 116.706 45.621C115.387 44.1139 114.063 42.5996 111.4 42.5996C108.812 42.5996 107.512 44.0854 106.206 45.5782C104.887 47.0853 103.563 48.5996 100.9 48.5996C98.3123 48.5996 97.0123 47.1139 95.7062 45.621C94.3875 44.1139 93.0625 42.5996 90.3999 42.5996C87.8123 42.5996 86.5123 44.0854 85.2062 45.5782C83.8875 47.0853 82.5625 48.5996 79.8999 48.5996C77.3123 48.5996 76.0123 47.1139 74.7062 45.621C73.3875 44.1139 72.0625 42.5996 69.3999 42.5996C66.8123 42.5996 65.5123 44.0854 64.2062 45.5782C62.8875 47.0853 61.5625 48.5996 58.8999 48.5996C56.3123 48.5996 55.0123 47.1139 53.7062 45.621C52.3875 44.1139 51.0625 42.5996 48.3999 42.5996C45.8123 42.5996 44.5123 44.0854 43.2062 45.5782C41.8875 47.0853 40.5625 48.5996 37.8999 48.5996C35.3123 48.5996 34.0123 47.1139 32.7062 45.621C31.3875 44.1139 30.0625 42.5996 27.3999 42.5996C26.7509 42.5996 26.1828 42.6896 25.6759 42.8475C24.5812 47.2172 24 51.7906 24 56.4996C24 57.3711 24.0199 58.2379 24.0593 59.0996Z" fill="#A7CBF6"/>
<path d="M97.5 136.5H62.5C61.1 136.5 60 135.4 60 134C60 132.6 61.1 131.5 62.5 131.5H97.4C98.8 131.5 99.9 132.6 99.9 134C100 135.4 98.9 136.5 97.5 136.5Z" fill="#FFD590"/>
<path d="M35.2 88.1004C29 88.1004 24 83.1004 24 76.9004V53.9004H46.4V76.9004C46.4 83.1004 41.4 88.1004 35.2 88.1004Z" fill="#FFD590"/>
<path d="M57.6004 88.1004C51.4004 88.1004 46.4004 83.1004 46.4004 76.9004V53.9004H68.8004V76.9004C68.9004 83.1004 63.8004 88.1004 57.6004 88.1004Z" fill="#F7B548"/>
<path d="M79.9998 88.1004C73.7998 88.1004 68.7998 83.1004 68.7998 76.9004V53.9004H91.1998V76.9004C91.1998 83.1004 86.1998 88.1004 79.9998 88.1004Z" fill="#FFD590"/>
<path d="M102.4 88.1004C96.2002 88.1004 91.2002 83.1004 91.2002 76.9004V53.9004H113.6V76.9004C113.7 83.1004 108.6 88.1004 102.4 88.1004Z" fill="#F7B548"/>
<path d="M124.9 88.1004C118.7 88.1004 113.7 83.1004 113.7 76.9004V53.9004H136.1V76.9004C136.1 83.1004 131.1 88.1004 124.9 88.1004Z" fill="#FFD590"/>
<path d="M35.9 160.5C36.2 159.1 36.5 157.6 36.5 156.1C36.5 146 28.3 137.9 18.3 137.9C8.3 137.9 0 146 0 156.1C0 157.6 0.2 159.1 0.6 160.5H35.9Z" fill="#E1DFDD"/>
<path d="M50.5 160.5C49.5 155.6 45.2 151.8 40 151.8C34.8 151.8 30.4 155.5 29.5 160.5H50.5Z" fill="#F2F2F2"/>
<path d="M40.1996 147.2C32.7996 147.2 26.7996 153.1 26.5996 160.5H53.7996C53.5996 153.1 47.5996 147.2 40.1996 147.2Z" fill="#E1DFDD"/>
<path d="M122.1 20.6004C122.3 20.6004 122.5 20.6004 122.7 20.6004C122.7 20.4004 122.7 20.2004 122.7 20.0004C122.7 19.2004 122.8 18.5004 123 17.8004C123.3 16.5004 123.9 15.2004 124.7 14.2004C125.6 13.0004 126.8 12.1004 128.1 11.4004C129.4 10.8004 130.9 10.4004 132.5 10.4004C135.7 10.4004 138.5 11.9004 140.3 14.2004C140.7 14.8004 141.1 15.4004 141.4 16.0004C142.8 15.1004 144.4 14.6004 146.1 14.6004C150.8 14.6004 154.6 18.3004 154.7 22.9004C157.8 23.6004 160.1 26.3004 160.1 29.6004C160.1 33.4004 157 36.5004 153.1 36.5004L122.2 36.6004C117.7 36.6004 114.1 33.0004 114.1 28.6004C114 24.2004 117.6 20.6004 122.1 20.6004Z" fill="#E1DFDD"/>
<path fill-rule="evenodd" clip-rule="evenodd" d="M24.079 59.5H135.921C135.973 58.5066 136 57.5064 136 56.5C136 55.4936 135.973 54.4934 135.921 53.5H24.079C24.0265 54.4934 24 55.4936 24 56.5C24 57.5064 24.0265 58.5066 24.079 59.5Z" fill="#3E8EED"/>
</g>
<defs>
<linearGradient id="paint0_linear_6027_50732" x1="69.1615" y1="121.832" x2="79.8028" y2="146.218" gradientUnits="userSpaceOnUse">
<stop offset="0.1289" stop-color="#F7B548"/>
<stop offset="1" stop-color="#FFD590"/>
</linearGradient>
<clipPath id="clip0_6027_50732">
<rect width="160" height="160" fill="white" transform="translate(0 0.5)"/>
</clipPath>
</defs>
</svg>
