<svg width="25" height="24" viewBox="0 0 25 24" fill="none" xmlns="http://www.w3.org/2000/svg">
<path d="M15.004 10C15.9705 10 16.754 10.7835 16.754 11.75V16.499C16.754 18.9848 14.7388 21 12.253 21C9.76712 21 7.75193 18.9848 7.75193 16.499V11.75C7.75193 10.7835 8.53543 10 9.50193 10H15.004ZM15.004 11.5H9.50193C9.36386 11.5 9.25193 11.6119 9.25193 11.75V16.499C9.25193 18.1564 10.5955 19.5 12.253 19.5C13.9104 19.5 15.254 18.1564 15.254 16.499V11.75C15.254 11.6119 15.1421 11.5 15.004 11.5ZM4 10L7.38128 9.99906C7.03791 10.4145 6.81424 10.9325 6.76312 11.5002L4 11.5C3.86193 11.5 3.75 11.6119 3.75 11.75V14.9988C3.75 16.3802 4.86984 17.5 6.25124 17.5C6.45123 17.5 6.64574 17.4765 6.83216 17.4322C6.91687 17.9361 7.07156 18.4167 7.28487 18.864C6.95577 18.953 6.60899 19 6.25124 19C4.04142 19 2.25 17.2086 2.25 14.9988V11.75C2.25 10.7835 3.0335 10 4 10ZM17.1247 9.99906L20.5 10C21.4665 10 22.25 10.7835 22.25 11.75V15C22.25 17.2091 20.4591 19 18.25 19C17.8936 19 17.548 18.9534 17.2191 18.8659C17.434 18.4177 17.5888 17.9371 17.675 17.4331C17.8592 17.477 18.0519 17.5 18.25 17.5C19.6307 17.5 20.75 16.3807 20.75 15V11.75C20.75 11.6119 20.6381 11.5 20.5 11.5L17.7428 11.5002C17.6917 10.9325 17.468 10.4145 17.1247 9.99906ZM12.25 3C13.9069 3 15.25 4.34315 15.25 6C15.25 7.65685 13.9069 9 12.25 9C10.5931 9 9.25 7.65685 9.25 6C9.25 4.34315 10.5931 3 12.25 3ZM18.75 4C20.1307 4 21.25 5.11929 21.25 6.5C21.25 7.88071 20.1307 9 18.75 9C17.3693 9 16.25 7.88071 16.25 6.5C16.25 5.11929 17.3693 4 18.75 4ZM5.75 4C7.13071 4 8.25 5.11929 8.25 6.5C8.25 7.88071 7.13071 9 5.75 9C4.36929 9 3.25 7.88071 3.25 6.5C3.25 5.11929 4.36929 4 5.75 4ZM12.25 4.5C11.4216 4.5 10.75 5.17157 10.75 6C10.75 6.82843 11.4216 7.5 12.25 7.5C13.0784 7.5 13.75 6.82843 13.75 6C13.75 5.17157 13.0784 4.5 12.25 4.5ZM18.75 5.5C18.1977 5.5 17.75 5.94772 17.75 6.5C17.75 7.05228 18.1977 7.5 18.75 7.5C19.3023 7.5 19.75 7.05228 19.75 6.5C19.75 5.94772 19.3023 5.5 18.75 5.5ZM5.75 5.5C5.19772 5.5 4.75 5.94772 4.75 6.5C4.75 7.05228 5.19772 7.5 5.75 7.5C6.30228 7.5 6.75 7.05228 6.75 6.5C6.75 5.94772 6.30228 5.5 5.75 5.5Z" fill="#242424"/>
</svg>
