<svg width="46" height="46" viewBox="0 0 46 46" fill="none" xmlns="http://www.w3.org/2000/svg">
<path d="M19.7782 12.0537C20.2938 12.5742 20.2938 13.4181 19.7782 13.9386L15.1568 18.6032C14.6576 19.1071 13.8541 19.1254 13.3328 18.6448L11.3522 16.8189C10.8138 16.3225 10.7759 15.4794 11.2677 14.9359C11.7595 14.3924 12.5947 14.3542 13.1331 14.8506L14.1819 15.8176L17.9109 12.0536C18.4266 11.5331 19.2626 11.5332 19.7782 12.0537ZM19.7782 27.2667C20.2938 26.7462 20.2938 25.9023 19.7782 25.3818C19.2626 24.8613 18.4266 24.8613 17.9109 25.3817L14.1819 29.1457L13.1331 28.1787C12.5947 27.6823 11.7595 27.7205 11.2677 28.264C10.7759 28.8076 10.8138 29.6506 11.3522 30.147L13.3328 31.9729C13.8541 32.4535 14.6576 32.4352 15.1568 31.9313L19.7782 27.2667ZM24.1261 13.6625C23.3968 13.6625 22.8057 14.2592 22.8057 14.9953C22.8057 15.7314 23.3968 16.3281 24.1261 16.3281H30.7279C31.4572 16.3281 32.0483 15.7314 32.0483 14.9953C32.0483 14.2592 31.4572 13.6625 30.7279 13.6625H24.1261ZM3 10.9969C3 6.58032 6.54692 3 10.9223 3H32.0483C36.4237 3 39.9706 6.58032 39.9706 10.9969V20.5958C39.1286 20.1621 38.2444 19.8112 37.3298 19.5495V10.9969C37.3298 8.05251 34.9652 5.66562 32.0483 5.66562H10.9223C8.00537 5.66562 5.64076 8.05251 5.64076 10.9969V32.3219C5.64076 35.2662 8.00537 37.6531 10.9223 37.6531H19.3951C19.6537 38.574 20.001 39.4669 20.4317 40.3187H10.9223C6.54692 40.3187 3 36.7384 3 32.3219V10.9969ZM23.1604 32.108C23.8424 31.9319 24.4825 31.62 25.0434 31.1907C25.6042 30.7613 26.0743 30.2231 26.4261 29.6077C26.7779 28.9923 27.0043 28.3121 27.092 27.6072C27.1797 26.9022 27.1269 26.1867 26.9367 25.5026L26.5248 24.0178C27.1972 23.4938 27.9253 23.0468 28.6955 22.685L29.5854 23.6393C30.0791 24.1677 30.6746 24.5888 31.3354 24.8765C31.9961 25.1643 32.7081 25.3127 33.4277 25.3127C34.1473 25.3127 34.8593 25.1643 35.5201 24.8765C36.1808 24.5888 36.7763 24.1677 37.27 23.6393L38.1203 22.725C38.9058 23.0976 39.6457 23.561 40.3254 24.1058L39.9926 25.2307C39.7866 25.9265 39.7236 26.6575 39.8075 27.3787C39.8914 28.1 40.1203 28.7964 40.4804 29.4251C40.8404 30.0539 41.3239 30.6017 41.9012 31.0351C42.4785 31.4685 43.1374 31.7783 43.8376 31.9454L44.7592 32.164C44.8176 32.6549 44.8467 33.1489 44.8463 33.6434C44.8463 34.0592 44.8252 34.4697 44.7856 34.8749L43.5709 35.1894C42.8887 35.3652 42.2482 35.6769 41.6871 36.1061C41.126 36.5354 40.6556 37.0735 40.3035 37.689C39.9514 38.3044 39.7248 38.9847 39.637 39.6898C39.5491 40.3949 39.6018 41.1106 39.7919 41.7949L40.2039 43.277C39.5324 43.8024 38.8042 44.2495 38.0332 44.6098L37.1433 43.6555C36.6496 43.1274 36.0542 42.7068 35.3937 42.4193C34.7333 42.1317 34.0216 41.9834 33.3023 41.9834C32.583 41.9834 31.8713 42.1317 31.2108 42.4193C30.5503 42.7068 29.955 43.1274 29.4613 43.6555L28.6136 44.5831C27.8292 44.2085 27.0895 43.7452 26.4086 43.2023L26.7413 42.0748C26.9473 41.3789 27.0103 40.648 26.9264 39.9267C26.8426 39.2054 26.6136 38.5091 26.2536 37.8803C25.8935 37.2516 25.41 36.7037 24.8327 36.2703C24.2554 35.8369 23.5965 35.5272 22.8964 35.3601L21.9747 35.1388C21.9162 34.6488 21.8871 34.1556 21.8876 33.662C21.8876 33.2462 21.9087 32.8357 21.9483 32.4305L23.1604 32.108ZM36.0077 33.654C36.0077 32.9471 35.7295 32.2691 35.2343 31.7692C34.739 31.2693 34.0673 30.9884 33.367 30.9884C32.8447 30.9884 32.3341 31.1448 31.8998 31.4377C31.4656 31.7306 31.1271 32.1469 30.9272 32.634C30.7274 33.121 30.6751 33.657 30.777 34.1741C30.8788 34.6912 31.1304 35.1661 31.4997 35.5389C31.869 35.9117 32.3395 36.1656 32.8518 36.2685C33.364 36.3713 33.895 36.3185 34.3775 36.1168C34.8601 35.915 35.2725 35.5734 35.5627 35.135C35.8529 34.6966 36.0077 34.1813 36.0077 33.654Z" fill="#242424"/>
</svg>
