<svg width="25" height="24" viewBox="0 0 25 24" fill="none" xmlns="http://www.w3.org/2000/svg">
<path d="M18.5043 13.9992C19.7463 13.9992 20.7532 15.0061 20.7532 16.2481V16.8235C20.7532 17.7178 20.4336 18.5826 19.8521 19.262C18.2827 21.0955 15.8955 22.0004 12.7501 22.0004C9.60426 22.0004 7.21825 21.0952 5.65194 19.2609C5.07218 18.582 4.75366 17.7185 4.75366 16.8258V16.2481C4.75366 15.0061 5.76052 13.9992 7.00254 13.9992H18.5043ZM18.5043 15.4992H7.00254C6.58895 15.4992 6.25366 15.8345 6.25366 16.2481V16.8258C6.25366 17.3614 6.44477 17.8795 6.79263 18.2869C8.04594 19.7546 10.0118 20.5004 12.7501 20.5004C15.4884 20.5004 17.456 19.7545 18.7125 18.2866C19.0614 17.879 19.2532 17.3601 19.2532 16.8235V16.2481C19.2532 15.8345 18.9179 15.4992 18.5043 15.4992ZM12.7501 2.00391C15.5115 2.00391 17.7501 4.24248 17.7501 7.00391C17.7501 9.76533 15.5115 12.0039 12.7501 12.0039C9.9887 12.0039 7.75012 9.76533 7.75012 7.00391C7.75012 4.24248 9.9887 2.00391 12.7501 2.00391ZM12.7501 3.50391C10.8171 3.50391 9.25012 5.07091 9.25012 7.00391C9.25012 8.9369 10.8171 10.5039 12.7501 10.5039C14.6831 10.5039 16.2501 8.9369 16.2501 7.00391C16.2501 5.07091 14.6831 3.50391 12.7501 3.50391Z" fill="#242424"/>
</svg>
