<svg width="342" height="214" viewBox="0 0 342 214" fill="none" xmlns="http://www.w3.org/2000/svg">
<mask id="mask0" mask-type="alpha" maskUnits="userSpaceOnUse" x="0" y="0" width="342" height="214">
<rect y="0.5" width="342" height="213.449" fill="#C4C4C4"/>
</mask>
<g mask="url(#mask0)">
<ellipse cx="176.524" cy="152.168" rx="156.86" ry="149.28" fill="#F0F9FA"/>
<path d="M67.3736 212.179C64.134 212.179 61.4758 209.551 61.4758 206.349V46.4546C61.4758 43.2518 64.134 40.6238 67.3736 40.6238H285.675C288.914 40.6238 291.573 43.2518 291.573 46.4546V206.349C291.573 209.551 288.914 212.179 285.675 212.179" fill="white"/>
<path d="M291.573 76.2654H61.4758V46.4546C61.4758 43.2518 64.134 40.6238 67.3736 40.6238H285.675C288.914 40.6238 291.573 43.2518 291.573 46.4546V76.2654Z" fill="#49ACAC"/>
<path d="M105.305 148.235H73.1051V152.297H105.305V148.235Z" fill="#1A9AA0"/>
<path d="M164.533 146.439H128.361V150.502H164.533V146.439Z" fill="#1A9AA0"/>
<path d="M203.257 146.489H167.084V150.552H203.257V146.489Z" fill="#1A9AA0"/>
<path d="M241.762 146.489H205.59V150.552H241.762V146.489Z" fill="#1A9AA0"/>
<path d="M280.268 146.489H244.096V150.552H280.268V146.489Z" fill="#1A9AA0"/>
<path d="M167.084 155.028V159.594H167.584V164.16H167.084V168.726H167.584V170.51H169.345V171.01H173.867V170.51H178.388V171.01H182.91V170.51H187.431V171.01H191.953V170.51H196.474V171.01H200.996V170.51H202.757V168.726H203.257V164.16H202.757V159.594H203.257V155.028H202.757V153.245H200.996V152.745H196.474V153.245H191.953V152.745H187.431V153.245H182.91V152.745H178.388V153.245H173.867V152.745H169.345V153.245H167.584V155.028H167.084Z" fill="#EDEBE9" stroke="#1A9AA0" stroke-dasharray="5 5"/>
<path d="M203.325 173.428H167.153V191.692H203.325V173.428Z" fill="#EDEBE9"/>
<path d="M208.276 187.344H176.077V201.724H208.276V187.344Z" fill="#EDEBE9"/>
<path d="M128.06 91.6628V96.3347H128.56V101.007H128.06V105.679H128.56V110.351H128.06V115.022H128.56V119.694H128.06V124.366H128.56V129.038H128.06V133.71H128.56V135.546H130.412V136.046H135.114V135.546H139.817V136.046H144.52V135.546H149.223V136.046H153.926V135.546H158.629V136.046H163.332V135.546H168.035V136.046H172.737V135.546H177.44V136.046H182.143V135.546H186.846V136.046H191.549V135.546H196.252V136.046H200.955V135.546H202.806V133.71H203.306V129.038H202.806V124.366H203.306V119.694H202.806V115.022H203.306V110.351H202.806V105.679H203.306V101.007H202.806V96.3347H203.306V91.6628H202.806V89.8268H200.955V89.3268H196.252V89.8268H191.549V89.3268H186.846V89.8268H182.143V89.3268H177.44V89.8268H172.737V89.3268H168.035V89.8268H163.332V89.3268H158.629V89.8268H153.926V89.3268H149.223V89.8268H144.52V89.3268H139.817V89.8268H135.114V89.3268H130.412V89.8268H128.56V91.6628H128.06Z" fill="#EDEBE9" stroke="#1A9AA0" stroke-dasharray="5 5"/>
<path d="M176.077 186.99V194.179H176.577V197.274H178.76V197.774H184.127V197.274H189.493V197.774H194.86V197.274H200.226V197.774H205.593V197.274H207.776V194.179H208.276V186.99H207.776V183.895H205.593V183.395H200.226V183.895H194.86V183.395H189.493V183.895H184.127V183.395H178.76V183.895H176.577V186.99H176.077Z" fill="#EDEBE9" stroke="#1A9AA0" stroke-dasharray="5 5"/>
<path d="M105.305 134.095H73.1051V148.474H105.305V134.095Z" fill="#EDEBE9"/>
<path d="M118.628 76.2655H61.5377V212.18H118.628V76.2655Z" fill="#EDEBE9"/>
<path d="M164.533 152.682H128.361V170.946H164.533V152.682Z" fill="#EDEBE9"/>
<path d="M164.533 173.556H128.361V191.82H164.533V173.556Z" fill="#EDEBE9"/>
<path d="M203.325 185.298H167.153V199.677H203.325V185.298Z" fill="#EDEBE9"/>
<path d="M203.257 193.914H167.084V212.179H203.257V193.914Z" fill="#EDEBE9"/>
<path d="M164.533 193.916H128.361V212.18H164.533V193.916Z" fill="#EDEBE9"/>
<path d="M280.268 152.745H244.096V170.834H280.268V152.745Z" fill="#EDEBE9"/>
<path d="M280.268 173.419H244.096V191.507H280.268V173.419Z" fill="#EDEBE9"/>
<path d="M280.268 194.09H244.096V212.179H280.268V194.09Z" fill="#EDEBE9"/>
<path d="M280.268 88.8301H206.144V135.549H280.268V88.8301Z" fill="#EDEBE9"/>
<path d="M241.762 152.745H205.59V170.834H241.762V152.745Z" fill="#EDEBE9"/>
<path d="M241.762 173.419H205.59V191.507H241.762V173.419Z" fill="#EDEBE9"/>
<path d="M241.762 194.09H205.59V212.179H241.762V194.09Z" fill="#EDEBE9"/>
<path d="M221.214 63.1252H170.543V67.3957H221.214V63.1252Z" fill="#81D5D7"/>
<path d="M157.336 63.1252H123.693V67.3957H157.336V63.1252Z" fill="#81D5D7"/>
<path d="M110.901 63.1252H73.4376V67.3957H110.901V63.1252Z" fill="#81D5D7"/>
<path d="M209.258 208.353L170.632 201.866C169.801 201.701 169.22 200.88 169.386 200.059L176.114 161.05C176.28 160.229 177.111 159.654 177.942 159.818L216.568 166.306C217.399 166.47 217.98 167.292 217.814 168.113L211.086 207.121C210.919 207.943 210.089 208.518 209.258 208.353Z" fill="#E1DFDD"/>
<mask id="mask1" mask-type="alpha" maskUnits="userSpaceOnUse" x="165" y="155" width="51" height="50">
<path d="M206.878 204.911L167.172 198.332C166.318 198.165 165.72 197.332 165.891 196.5L172.808 156.943C172.978 156.11 173.832 155.527 174.686 155.694L214.392 162.272C215.246 162.439 215.844 163.272 215.673 164.105L208.756 203.661C208.586 204.494 207.732 205.077 206.878 204.911Z" fill="white"/>
</mask>
<g mask="url(#mask1)">
<path d="M206.731 204.857L168.105 198.369C167.274 198.205 166.692 197.384 166.859 196.563L173.587 157.554C173.753 156.733 174.584 156.158 175.415 156.322L214.041 162.81C214.872 162.974 215.453 163.796 215.287 164.617L208.558 203.625C208.392 204.447 207.562 205.021 206.731 204.857Z" fill="white"/>
<path d="M172.048 159.402L170.675 167.357L183.785 169.568L185.158 161.614L172.048 159.402Z" fill="#90D5CD"/>
<path d="M186.365 167.815L186.017 169.831L232.366 177.649L232.714 175.633L186.365 167.815Z" fill="#90D5CD"/>
<path d="M172.048 169.869L171.7 171.885L218.049 179.703L218.397 177.687L172.048 169.869Z" fill="#90D5CD"/>
<path d="M172.048 173.977L171.7 175.993L218.049 183.812L218.397 181.795L172.048 173.977Z" fill="#90D5CD"/>
<path d="M172.048 178.086L171.7 180.102L218.049 187.921L218.397 185.904L172.048 178.086Z" fill="#90D5CD"/>
<path d="M172.048 182.194L171.7 184.211L218.049 192.029L218.397 190.012L172.048 182.194Z" fill="#90D5CD"/>
<path d="M172.048 186.302L171.7 188.319L218.049 196.137L218.397 194.12L172.048 186.302Z" fill="#90D5CD"/>
<path d="M167.893 189.383L167.545 191.4L213.894 199.218L214.242 197.201L167.893 189.383Z" fill="#90D5CD"/>
<path d="M162.475 192.466L162.127 194.482L208.476 202.301L208.824 200.284L162.475 192.466Z" fill="#90D5CD"/>
<path d="M162.475 195.546L162.127 197.562L208.476 205.38L208.824 203.364L162.475 195.546Z" fill="#90D5CD"/>
<path d="M213.631 164.174L206.863 202.881L167.933 196.431L174.701 157.723L213.631 164.174Z" stroke="white" stroke-width="4"/>
</g>
<path d="M327.988 192.552C325.662 187.378 324.499 181.711 324.666 175.963L324.915 167.75C325.164 165.451 325.164 163.152 324.915 160.77C323.17 144.51 310.129 132.602 295.841 134.162C281.554 135.722 271.419 150.094 273.247 166.354C273.496 168.736 273.994 171.035 274.742 173.171L276.736 181.137C278.148 186.721 278.231 192.552 277.068 198.054L274.576 212.179L334.551 211.851L327.988 192.552Z" fill="url(#paint0_radial)"/>
<path d="M289.373 123.858C300.654 121.577 308.153 111.768 306.122 101.948C304.091 92.1279 293.3 86.0157 282.018 88.2959C270.737 90.5762 263.238 100.385 265.269 110.206C267.3 120.026 278.091 126.138 289.373 123.858Z" fill="#59453C"/>
<path d="M284.503 126.935L287.826 125.128L283.755 117.737L280.433 119.544C278.356 120.693 277.608 123.239 278.771 125.292C279.851 127.263 282.426 128.084 284.503 126.935Z" fill="#E0BB95"/>
<path d="M311.624 99.8339L283.796 82.2595L282.467 79.9601L285.125 80.2065L312.953 97.7809C313.451 98.1093 313.534 98.7663 313.202 99.3412C312.787 99.9161 312.039 100.162 311.624 99.8339Z" fill="#F3AE5A"/>
<path d="M299.413 92.2796C305.239 92.2796 309.962 87.6101 309.962 81.8499C309.962 76.0898 305.239 71.4203 299.413 71.4203C293.586 71.4203 288.863 76.0898 288.863 81.8499C288.863 87.6101 293.586 92.2796 299.413 92.2796Z" fill="url(#paint1_linear)"/>
<path d="M289.112 128.577C300.627 128.577 309.962 119.349 309.962 107.964C309.962 96.5803 300.627 87.3515 289.112 87.3515C277.597 87.3515 268.262 96.5803 268.262 107.964C268.262 119.349 277.597 128.577 289.112 128.577Z" fill="#59453C"/>
<path d="M301.24 129.727V115.355H289.86V129.727C289.86 129.727 289.86 134.161 285.624 135.722H305.477C301.323 133.915 301.24 129.727 301.24 129.727Z" fill="url(#paint2_radial)"/>
<path d="M285.457 130.713L284.211 130.96C279.394 131.945 274.742 128.825 273.745 124.144L271.004 110.757C269.758 104.598 273.745 98.6032 279.975 97.3713C286.205 96.1395 292.269 100.081 293.515 106.241L295.509 115.849C296.838 122.583 292.352 129.317 285.457 130.713Z" fill="#E0BB95"/>
<path d="M276.486 97.6994C275.905 102.709 281.221 117.327 291.604 111.66C299.164 112.399 297.917 109.032 297.668 107.144C296.422 98.6027 277.068 92.8541 276.486 97.6994Z" fill="#594539"/>
<path d="M275.656 108.704C273.413 111.085 271.752 111.578 271.752 114.534C268.761 112.563 267.266 107.143 268.346 103.858C269.924 98.8489 276.985 95.3997 276.985 95.3997L277.816 102.38C277.816 102.38 278.231 105.994 275.656 108.704Z" fill="#594539"/>
<path d="M301.407 124.389C301.407 124.389 297.419 122.336 296.422 118.066C295.426 113.795 300.327 111.742 300.327 111.742L303.815 118.641L301.407 124.389Z" fill="#594539"/>
<path d="M296.09 118.969L292.352 119.708L290.774 112.071C290.774 112.071 293.017 110.675 294.512 110.428C297.253 109.854 298.914 111.742 299.33 114.042C299.911 116.259 298.416 118.477 296.09 118.969Z" fill="#E0BB95"/>
<path d="M272.582 118.395C272.416 119.217 272.499 119.545 271.502 120.941C271.087 121.516 271.253 122.419 271.751 122.912C272.167 123.405 273.081 123.651 273.911 124.637C274.659 125.622 277.317 123.569 276.32 120.284C275.49 117.903 272.914 116.589 272.582 118.395Z" fill="#E0BB95"/>
<path d="M278.489 122.471C280.961 121.972 282.474 119.189 281.867 116.257C281.261 113.324 278.765 111.352 276.293 111.851C273.821 112.351 272.309 115.133 272.915 118.066C273.522 120.999 276.017 122.971 278.489 122.471Z" stroke="#9B643D" stroke-width="1.665" stroke-linecap="round" stroke-linejoin="round"/>
<path d="M277.651 119.261C278.326 119.129 278.684 118.083 278.452 116.927C278.219 115.77 277.483 114.94 276.808 115.073C276.133 115.206 275.775 116.251 276.007 117.407C276.24 118.564 276.976 119.394 277.651 119.261Z" fill="#33312D"/>
<path d="M281.803 124.799C281.803 125.292 281.72 125.621 281.554 126.031C281.387 126.442 281.055 126.77 280.723 127.017C280.308 127.263 279.809 127.427 279.394 127.427C278.895 127.427 278.48 127.263 278.148 127.017C277.899 126.852 277.816 126.524 277.982 126.278C278.065 126.195 278.148 126.113 278.231 126.031H278.314C278.978 125.867 279.311 125.703 279.56 125.538C279.726 125.456 279.892 125.292 280.058 125.128L280.557 124.553L280.64 124.389C280.889 124.142 281.221 124.142 281.47 124.389C281.72 124.471 281.803 124.635 281.803 124.799Z" fill="#BF8F68"/>
<path d="M233.538 172.01L234.618 167.082C234.618 167.082 251.73 172.667 268.509 162.976C277.564 157.72 286.286 145.402 290.19 141.953C292.516 139.9 294.759 138.093 297.001 136.779C303.979 132.673 312.037 141.378 308.215 148.44C303.314 157.392 294.509 170.696 275.487 177.43C258.624 183.425 234.95 171.928 233.538 172.01Z" fill="#49ACAC"/>
<path d="M222.157 168.889L217.589 167.657L215.844 167.575C215.18 167.821 214.681 168.314 214.432 169.053L214.183 169.874C213.934 170.695 213.103 171.188 212.272 170.942L211.275 170.613C210.943 170.531 210.777 170.203 210.777 169.874L210.86 167.164C210.86 166.261 211.359 165.357 212.106 164.865L214.183 162.647L211.525 163.961L210.029 166.014C209.863 166.261 209.614 166.425 209.282 166.507L208.285 166.753C208.036 166.836 207.87 166.589 207.953 166.343C208.534 165.193 210.029 162.565 210.777 161.908C211.691 161.005 214.266 160.43 214.266 160.43C214.764 160.184 215.346 160.184 215.844 160.348L226.228 166.179L225.397 167.493C224.899 168.724 223.486 169.299 222.157 168.889Z" fill="#E0BB95"/>
<path d="M236.694 174.228L235.116 165.194C229.135 164.537 225.148 161.335 225.148 161.335L222.988 173.16L236.694 174.228Z" fill="white"/>
<path d="M302.652 129.727L288.365 132.848L287.451 131.698L283.879 137.857L282.882 139.911L287.866 136.133V141.06L305.56 135.312L302.652 129.727Z" fill="#F3F2F1"/>
<path d="M151.346 109.441L154.171 111.494C154.503 111.741 154.669 112.069 154.752 112.48L154.918 115.765C154.918 116.093 154.669 116.34 154.337 116.34L150.35 116.586L148.19 113.383L150.017 109.688L151.346 109.441Z" fill="#7A442C"/>
<path d="M146.86 108.621C147.193 108.21 147.691 107.964 148.272 107.882L153.921 107.389C154.336 107.389 154.752 107.636 154.918 108.046L156.33 111.331C156.413 111.577 156.413 111.824 156.247 111.988C155.333 112.152 154.336 110.674 153.921 109.442C153.921 109.442 151.761 109.853 150.764 110.017C150.432 110.099 150.183 110.264 150.017 110.592L148.688 113.22C148.439 113.631 148.605 113.959 149.02 114.288L149.768 114.862C150.1 115.109 150.515 115.191 150.847 115.027C152.26 114.452 155.499 113.384 155.499 114.37C155.499 115.355 155.001 116.176 150.017 118.558C149.851 118.64 149.768 118.804 149.601 118.886C149.352 119.133 148.937 120.118 146.694 121.186C144.202 122.336 142.79 122.746 142.79 122.746L138.969 119.215L146.86 108.621Z" fill="#9B643D"/>
<path d="M139.052 119.132C139.052 119.132 122.273 130.958 106.656 134.079C90.5408 137.282 69.7739 129.398 69.7739 129.398C69.7739 129.398 76.3363 150.75 75.2564 156.663C83.8123 155.349 90.2916 157.73 105.742 153.542C124.017 148.615 142.873 122.746 142.873 122.746L139.052 119.132Z" fill="url(#paint3_radial)"/>
<path d="M185.992 94.7379C180.632 96.3837 158.856 103 151.331 105.008C150.799 105.14 150.466 105.699 150.632 106.259C152.23 111.723 160.221 138.222 164.55 142.896C164.816 143.192 165.249 143.291 165.649 143.159L200.576 131.046C201.142 130.848 201.442 130.19 201.142 129.63C198.678 124.89 188.456 104.844 187.324 95.5279C187.224 94.9354 186.592 94.5404 185.992 94.7379Z" fill="#E1DFDD"/>
<path d="M182.669 93.0963C177.309 94.7422 155.533 101.359 148.008 103.367C147.475 103.498 147.143 104.058 147.309 104.617C148.907 110.082 156.898 136.58 161.227 141.255C161.493 141.551 161.926 141.65 162.325 141.518L197.253 129.404C197.819 129.207 198.118 128.548 197.819 127.989C195.355 123.249 185.133 103.202 184.001 93.8863C183.901 93.2938 183.269 92.8988 182.669 93.0963Z" fill="white"/>
<path d="M171.881 119.429L169.784 120.219L168.985 118.145L164.956 107.447C159.462 110.245 156.832 116.697 159.029 122.556C161.427 128.876 168.519 132.102 174.945 129.765C180.871 127.593 184.101 121.404 182.669 115.446L171.881 119.429Z" fill="#28C2D1"/>
<path d="M163.924 104.88L169.751 120.318L185.366 114.558C181.737 106.46 172.514 102.28 163.924 104.88Z" fill="#F3AE5A"/>
<path d="M149.768 114.781C150.1 115.027 150.515 115.109 150.847 114.945C152.26 114.37 155.499 113.303 155.499 114.288C155.499 115.274 155.001 116.095 149.934 118.476C149.851 118.558 149.768 114.781 149.768 114.781Z" fill="#9B643D"/>
<path d="M86.8026 148.862C86.8026 137.036 73.844 127.346 57.9782 127.346C42.1123 127.346 29.1538 136.954 29.1538 148.862L28.3231 212.179H87.5502L86.8026 148.862Z" fill="url(#paint4_radial)"/>
<path d="M20.0995 212.097C20.0995 212.097 19.1858 212.015 17.5244 208.484C13.2049 199.204 13.371 189.267 14.7832 176.784C16.9429 157.978 28.7385 138.761 39.2881 133.012C43.5245 130.713 53.7418 140.732 46.8472 152.968C43.9398 160.113 34.8855 208.402 30.0676 212.179C30.1507 212.179 20.0995 212.097 20.0995 212.097Z" fill="#B8EEEE"/>
<path d="M65.7868 78.8106C68.4936 78.8106 70.6878 76.6413 70.6878 73.9653C70.6878 71.2893 68.4936 69.12 65.7868 69.12C63.0801 69.12 60.8859 71.2893 60.8859 73.9653C60.8859 76.6413 63.0801 78.8106 65.7868 78.8106Z" fill="#594539"/>
<path d="M73.3457 82.6704C76.0524 82.6704 78.2467 80.5011 78.2467 77.8251C78.2467 75.1491 76.0524 72.9798 73.3457 72.9798C70.6389 72.9798 68.4447 75.1491 68.4447 77.8251C68.4447 80.5011 70.6389 82.6704 73.3457 82.6704Z" fill="#594539"/>
<path d="M57.2309 79.2213C59.9377 79.2213 62.1319 77.052 62.1319 74.376C62.1319 71.7 59.9377 69.5307 57.2309 69.5307C54.5242 69.5307 52.33 71.7 52.33 74.376C52.33 77.052 54.5242 79.2213 57.2309 79.2213Z" fill="#594539"/>
<path d="M50.087 83.0814C52.7937 83.0814 54.988 80.9121 54.988 78.2361C54.988 75.5601 52.7937 73.3908 50.087 73.3908C47.3803 73.3908 45.186 75.5601 45.186 78.2361C45.186 80.9121 47.3803 83.0814 50.087 83.0814Z" fill="#594539"/>
<path d="M76.3364 88.8299C79.0431 88.8299 81.2374 86.6606 81.2374 83.9846C81.2374 81.3086 79.0431 79.1393 76.3364 79.1393C73.6297 79.1393 71.4354 81.3086 71.4354 83.9846C71.4354 86.6606 73.6297 88.8299 76.3364 88.8299Z" fill="#594539"/>
<path d="M46.6812 88.8299C49.388 88.8299 51.5822 86.6606 51.5822 83.9846C51.5822 81.3086 49.388 79.1393 46.6812 79.1393C43.9745 79.1393 41.7803 81.3086 41.7803 83.9846C41.7803 86.6606 43.9745 88.8299 46.6812 88.8299Z" fill="#594539"/>
<path d="M74.3424 94.5784C77.0491 94.5784 79.2434 92.409 79.2434 89.7331C79.2434 87.0571 77.0491 84.8878 74.3424 84.8878C71.6356 84.8878 69.4414 87.0571 69.4414 89.7331C69.4414 92.409 71.6356 94.5784 74.3424 94.5784Z" fill="#594539"/>
<path d="M48.7577 94.5798C51.4644 94.5798 53.6586 92.4105 53.6586 89.7345C53.6586 87.0585 51.4644 84.8892 48.7577 84.8892C46.0509 84.8892 43.8567 87.0585 43.8567 89.7345C43.8567 92.4105 46.0509 94.5798 48.7577 94.5798Z" fill="#594539"/>
<path d="M51.7484 104.105H69.9401C73.2628 104.105 76.004 101.395 76.004 98.1104V88.7483C76.004 81.0288 69.6909 74.7874 61.8826 74.7874H59.8059C51.9976 74.7874 45.6844 81.0288 45.6844 88.7483V98.1104C45.6844 101.395 48.3426 104.105 51.7484 104.105Z" fill="#594539"/>
<path d="M46.0167 129.317C46.0167 129.317 50.4193 128.331 50.4193 122.418V105.255H57.9784H65.5376V122.418C65.5376 128.331 69.9401 129.317 69.9401 129.317C69.9401 129.317 64.7069 133.094 57.8954 133.094C51.0838 133.094 46.0167 129.317 46.0167 129.317Z" fill="url(#paint5_radial)"/>
<path d="M63.4609 120.119C70.6047 120.119 76.3363 114.452 76.3363 107.39V92.8537C76.3363 85.7911 70.6047 80.1246 63.4609 80.1246C56.3171 80.1246 50.5854 85.7911 50.5854 92.8537V107.472C50.5854 114.452 56.3171 120.119 63.4609 120.119Z" fill="#9B643D"/>
<path d="M60.3997 100.328C61.042 100.325 61.5575 99.4025 61.5512 98.2686C61.5448 97.1347 61.019 96.2184 60.3767 96.2219C59.7344 96.2254 59.2189 97.1475 59.2253 98.2814C59.2316 99.4152 59.7575 100.332 60.3997 100.328Z" fill="#3A312E"/>
<path d="M73.3457 114.78L65.9527 114.616L65.7035 108.867C65.7035 108.375 65.9527 107.882 66.4511 107.553L68.6939 106.075C69.1923 105.747 69.3585 105.09 69.0262 104.597L67.0326 101.558C66.5342 100.819 66.285 99.9981 66.285 99.0948L66.2019 87.1048L73.3457 87.3511V114.78Z" fill="url(#paint6_radial)"/>
<path d="M71.0327 100.328C71.6749 100.325 72.1904 99.4025 72.1841 98.2686C72.1777 97.1347 71.6519 96.2184 71.0096 96.2219C70.3673 96.2254 69.8518 97.1475 69.8582 98.2814C69.8646 99.4152 70.3904 100.332 71.0327 100.328Z" fill="#3A312E"/>
<path d="M44.8538 101.558C44.8538 104.186 47.0135 106.322 49.6717 106.322C49.8378 106.322 52.1637 106.322 52.3298 106.322C54.7388 106.075 54.4896 104.022 54.4896 101.558C54.4896 99.0948 54.8219 97.1238 52.4129 96.7953C52.2468 96.7953 49.8378 96.7953 49.6717 96.7953C47.0135 96.7953 44.8538 98.9305 44.8538 101.558Z" fill="#9B643D"/>
<path d="M61.1348 110.264C61.7163 110.592 62.2147 110.921 62.63 111.085C63.0454 111.331 63.5438 111.413 63.9591 111.578C64.3744 111.66 64.8728 111.742 65.3712 111.824C65.8697 111.906 66.4511 111.906 67.1157 111.906H67.1987C67.531 111.906 67.6971 112.153 67.6971 112.399C67.6971 112.481 67.6971 112.563 67.6141 112.645C67.1987 113.384 66.4511 113.795 65.7035 114.041C64.9559 114.288 64.0422 114.288 63.2115 114.041C62.3808 113.795 61.6332 113.384 61.1348 112.727C60.6364 112.07 60.2211 111.331 60.2211 110.592C60.2211 110.264 60.4703 110.099 60.7195 110.099C60.9687 110.182 61.0517 110.182 61.1348 110.264Z" fill="#7A442C"/>
<path d="M54.7385 77.4962H72.0166L77.4159 85.5443L76.3361 96.713L74.9239 88.5007C74.3425 85.8728 72.0996 84.0661 69.3584 84.0661H57.3136C54.6555 84.0661 52.3296 85.9549 51.7481 88.5007L50.336 96.713L49.2561 85.5443L54.7385 77.4962Z" fill="#594539"/>
<path d="M60.055 89.8152C62.7618 89.8152 64.956 87.6459 64.956 84.9699C64.956 82.2939 62.7618 80.1246 60.055 80.1246C57.3483 80.1246 55.1541 82.2939 55.1541 84.9699C55.1541 87.6459 57.3483 89.8152 60.055 89.8152Z" fill="#594539"/>
<path d="M53.6585 89.1581C56.3653 89.1581 58.5595 86.9888 58.5595 84.3128C58.5595 81.6369 56.3653 79.4676 53.6585 79.4676C50.9518 79.4676 48.7576 81.6369 48.7576 84.3128C48.7576 86.9888 50.9518 89.1581 53.6585 89.1581Z" fill="#594539"/>
<path d="M54.1572 94.4144C56.3592 94.4144 58.1444 92.6496 58.1444 90.4725C58.1444 88.2954 56.3592 86.5306 54.1572 86.5306C51.9551 86.5306 50.1699 88.2954 50.1699 90.4725C50.1699 92.6496 51.9551 94.4144 54.1572 94.4144Z" fill="#594539"/>
<path d="M19.7122 47.585C18.0677 44.8751 17.588 41.7588 18.3418 38.7103L17.6565 38.5071L16.9713 38.3038C15.3952 44.6042 8.95394 48.3979 2.58119 46.9075L2.37562 47.585L2.17004 48.2624C8.54279 49.8206 12.4487 56.1886 10.8726 62.4889L12.3116 62.8277C13.8877 56.5273 20.329 52.7336 26.7017 54.224L27.0443 52.8013C23.9607 52.1916 21.3568 50.2948 19.7122 47.585Z" fill="#FFD590"/>
<path d="M26.0164 84.71C23.7551 83.6261 22.1105 81.7969 21.2882 79.4936L20.7401 79.6291L20.1919 79.8323C21.905 84.5745 19.3696 89.8586 14.5729 91.4845L14.7784 92.0265L14.984 92.5685C19.7807 90.8748 25.1256 93.3814 26.7702 98.1913L27.8666 97.7849C26.1535 93.0427 28.6889 87.7585 33.4855 86.1326L33.0744 85.0487C30.7446 85.8617 28.2777 85.7262 26.0164 84.71Z" fill="#FFE5B9"/>
<path d="M40.6121 37.5598C39.6528 36.0694 39.3787 34.308 39.7899 32.6144L39.3787 32.5466L38.9676 32.4111C38.1453 35.9339 34.582 38.1017 31.0188 37.2888L30.9502 37.6953L30.8817 38.1017C34.445 38.9147 36.6377 42.5052 35.8155 46.028L36.6377 46.2312C37.46 42.7084 41.0918 40.5406 44.5865 41.3535L44.7921 40.5406C43.0105 40.0664 41.503 39.0502 40.6121 37.5598Z" fill="#FFE5B9"/>
</g>
<defs>
<radialGradient id="paint0_radial" cx="0" cy="0" r="1" gradientUnits="userSpaceOnUse" gradientTransform="translate(263.028 186.821) rotate(-6.13606) scale(62.0639 61.3747)">
<stop stop-color="#036C70"/>
<stop offset="0.4484" stop-color="#1A9AA0"/>
<stop offset="0.8246" stop-color="#49ACAC"/>
</radialGradient>
<linearGradient id="paint1_linear" x1="298.151" y1="76.0559" x2="301.223" y2="91.2558" gradientUnits="userSpaceOnUse">
<stop offset="0.2689" stop-color="#594539"/>
<stop offset="0.8111" stop-color="#463228"/>
</linearGradient>
<radialGradient id="paint2_radial" cx="0" cy="0" r="1" gradientUnits="userSpaceOnUse" gradientTransform="translate(278.718 124.475) scale(18.5 18.2898)">
<stop offset="0.06676" stop-color="#9B643D"/>
<stop offset="0.2364" stop-color="#AC7953"/>
<stop offset="0.5635" stop-color="#C89D77"/>
<stop offset="0.8298" stop-color="#DAB38D"/>
<stop offset="1" stop-color="#E0BB95"/>
</radialGradient>
<radialGradient id="paint3_radial" cx="0" cy="0" r="1" gradientUnits="userSpaceOnUse" gradientTransform="translate(87.5496 178.495) scale(39.3243 38.8774)">
<stop offset="0.1429" stop-color="#37C5CF"/>
<stop offset="0.644" stop-color="#81D5D7"/>
<stop offset="1" stop-color="#B8EEEE"/>
</radialGradient>
<radialGradient id="paint4_radial" cx="0" cy="0" r="1" gradientUnits="userSpaceOnUse" gradientTransform="translate(7.21885 198.616) scale(52.0872 51.4952)">
<stop offset="0.1429" stop-color="#49ACAC"/>
<stop offset="0.644" stop-color="#81D5D7"/>
<stop offset="1" stop-color="#B8EEEE"/>
</radialGradient>
<radialGradient id="paint5_radial" cx="0" cy="0" r="1" gradientUnits="userSpaceOnUse" gradientTransform="translate(58.0319 116.521) rotate(180) scale(12.9379 12.7909)">
<stop stop-color="#724937"/>
<stop offset="0.4397" stop-color="#8F5C3B"/>
<stop offset="0.7031" stop-color="#9B643D"/>
</radialGradient>
<radialGradient id="paint6_radial" cx="0" cy="0" r="1" gradientUnits="userSpaceOnUse" gradientTransform="translate(66.331 104.872) rotate(179.286) scale(7.98839 7.11851)">
<stop stop-color="#724937"/>
<stop offset="0.3496" stop-color="#88573A"/>
<stop offset="0.7026" stop-color="#96613C"/>
<stop offset="1" stop-color="#9B643D"/>
</radialGradient>
</defs>
</svg>
